<?xml version="1.0" encoding="UTF-8" standalone="no"?>
<!DOCTYPE svg PUBLIC "-//W3C//DTD SVG 1.1//EN" "http://www.w3.org/Graphics/SVG/1.1/DTD/svg11.dtd">
<svg width="100%" height="100%" viewBox="0 0 4716 4725" version="1.1" xmlns="http://www.w3.org/2000/svg" xmlns:xlink="http://www.w3.org/1999/xlink" xml:space="preserve" xmlns:serif="http://www.serif.com/" style="fill-rule:evenodd;clip-rule:evenodd;stroke-linecap:round;stroke-linejoin:round;stroke-miterlimit:1.41421;">
    <g transform="matrix(1,0,0,1,-24800.7,-11.101)">
        <g id="ArtBoard2" transform="matrix(0.998095,0,0,1,19877.3,11.101)">
            <rect x="4932.74" y="0" width="4724.41" height="4724.41" style="fill:none;"/>
            <clipPath id="_clip1">
                <rect x="4932.74" y="0" width="4724.41" height="4724.41"/>
            </clipPath>
            <g clip-path="url(#_clip1)">
                <g>
                    <g transform="matrix(1.00191,0,0,1,4932.74,-4.54747e-13)">
                        <path d="M4724.41,944.882C4724.41,423.387 4301.02,0 3779.53,0L944.882,0C423.387,0 0,423.387 0,944.882L0,3779.53C0,4301.02 423.387,4724.41 944.882,4724.41L3779.53,4724.41C4301.02,4724.41 4724.41,4301.02 4724.41,3779.53L4724.41,944.882Z" style="fill:rgb(0,60,122);"/>
                    </g>
                    <g transform="matrix(5.39871,0,0,5.38843,-106730,-15933.6)">
                        <circle cx="21120.7" cy="3335.84" r="203.491" style="fill:white;"/>
                    </g>
                    <g transform="matrix(1.58344,0,0,1.58042,-26143.8,-3940.09)">
                        <circle cx="21120.7" cy="3335.84" r="203.491" style="fill:rgb(0,60,122);"/>
                    </g>
                    <g transform="matrix(0.978576,0,0,1.09911,-19237.7,-293.981)">
                        <rect x="26827.9" y="1900.87" width="571.23" height="1074.6" style="fill:rgb(0,60,122);"/>
                    </g>
                    <g transform="matrix(0.857842,0,0,0.856207,5232.38,339.668)">
                        <path d="M4724.41,944.882C4724.41,423.387 4301.02,0 3779.53,0L944.882,0C423.387,0 0,423.387 0,944.882L0,3779.53C0,4301.02 423.387,4724.41 944.882,4724.41L3779.53,4724.41C4301.02,4724.41 4724.41,4301.02 4724.41,3779.53L4724.41,944.882Z" style="fill:none;stroke:white;stroke-width:107.06px;"/>
                    </g>
                </g>
                <g transform="matrix(0.823328,0,0,0.821759,-15871.8,667.208)">
                    <g transform="matrix(784.37,0,0,784.37,30058.6,3828.67)">
                    </g>
                    <text x="25947px" y="3828.67px" style="font-family:'HelveticaNeue-Medium', 'Helvetica Neue', sans-serif;font-weight:500;font-size:784.37px;fill:white;">information</text>
                </g>
            </g>
        </g>
    </g>
</svg>
